<?xml version="1.0" standalone="no"?>
<!DOCTYPE svg PUBLIC "-//W3C//DTD SVG 20010904//EN"
 "http://www.w3.org/TR/2001/REC-SVG-20010904/DTD/svg10.dtd">
<svg version="1.0" xmlns="http://www.w3.org/2000/svg"
 width="375.000000pt" height="375.000000pt" viewBox="0 0 375.000000 375.000000"
 preserveAspectRatio="xMidYMid meet">
<metadata>
Created by potrace 1.12, written by Peter Selinger 2001-2015
</metadata>
<g transform="translate(0.000000,375.000000) scale(0.100000,-0.100000)"
fill="#000000" stroke="none">
<path d="M0 1875 l0 -1875 1875 0 1875 0 0 1875 0 1875 -1875 0 -1875 0 0
-1875z m1910 1218 c0 -27 -756 -2150 -758 -2130 -2 19 63 897 82 1107 3 25 21
261 41 525 20 264 39 486 41 493 3 9 71 12 299 12 162 0 295 -3 295 -7z m36
-888 c-35 -462 -61 -843 -59 -847 2 -5 204 -8 449 -8 l444 0 0 -220 0 -220
-745 0 c-577 0 -745 3 -745 12 0 13 714 2127 717 2124 1 -1 -26 -379 -61 -841z"/>
</g>
</svg>
