<?xml version="1.0" standalone="no"?>
<!DOCTYPE svg PUBLIC "-//W3C//DTD SVG 20010904//EN"
 "http://www.w3.org/TR/2001/REC-SVG-20010904/DTD/svg10.dtd">
<svg version="1.0" xmlns="http://www.w3.org/2000/svg"
 width="64.000000pt" height="64.000000pt" viewBox="0 0 64.000000 64.000000"
 preserveAspectRatio="xMidYMid meet">
<metadata>
Created by potrace 1.12, written by Peter Selinger 2001-2015
</metadata>
<g transform="translate(0.000000,64.000000) scale(0.100000,-0.100000)"
fill="#000000" stroke="none">
<path d="M25 541 c-5 -9 280 -261 295 -261 15 0 300 252 295 261 -8 12 -582
12 -590 0z"/>
<path d="M0 314 l0 -186 97 83 c54 45 104 87 111 94 10 9 -10 31 -92 103 -58
51 -108 92 -111 92 -3 0 -5 -84 -5 -186z"/>
<path d="M528 412 c-54 -48 -99 -90 -100 -94 -2 -4 45 -48 105 -98 l107 -91 0
185 c0 102 -3 186 -7 185 -5 0 -52 -39 -105 -87z"/>
<path d="M126 199 c-59 -50 -104 -95 -100 -100 7 -12 581 -12 588 0 7 10 -199
191 -217 191 -6 0 -26 -14 -44 -32 l-33 -32 -33 32 c-18 18 -38 32 -44 32 -7
0 -59 -41 -117 -91z"/>
</g>
</svg>
