<?xml version="1.0" standalone="no"?>
<!DOCTYPE svg PUBLIC "-//W3C//DTD SVG 20010904//EN"
 "http://www.w3.org/TR/2001/REC-SVG-20010904/DTD/svg10.dtd">
<svg version="1.0" xmlns="http://www.w3.org/2000/svg"
 width="64.000000pt" height="64.000000pt" viewBox="0 0 64.000000 64.000000"
 preserveAspectRatio="xMidYMid meet">
<metadata>
Created by potrace 1.12, written by Peter Selinger 2001-2015
</metadata>
<g transform="translate(0.000000,64.000000) scale(0.100000,-0.100000)"
fill="#000000" stroke="none">
<path d="M58 624 c-54 -29 -58 -52 -58 -304 0 -317 2 -320 205 -320 l115 0 0
120 0 120 -40 0 -40 0 0 55 0 55 40 0 c38 0 40 2 40 30 0 41 22 90 53 119 22
20 38 24 89 25 l63 1 3 -52 3 -52 -53 -3 c-52 -3 -53 -4 -56 -35 l-3 -33 55 0
56 0 0 -55 0 -55 -55 0 -55 0 0 -120 0 -120 65 0 c39 0 78 6 95 15 56 29 60
51 60 305 0 336 16 320 -322 320 -187 -1 -238 -4 -260 -16z"/>
</g>
</svg>
