<?xml version="1.0" standalone="no"?>
<!DOCTYPE svg PUBLIC "-//W3C//DTD SVG 20010904//EN"
 "http://www.w3.org/TR/2001/REC-SVG-20010904/DTD/svg10.dtd">
<svg version="1.0" xmlns="http://www.w3.org/2000/svg"
 width="49.000000pt" height="42.000000pt" viewBox="0 0 49.000000 42.000000"
 preserveAspectRatio="xMidYMid meet">
<metadata>
Created by potrace 1.12, written by Peter Selinger 2001-2015
</metadata>
<g transform="translate(0.000000,42.000000) scale(0.100000,-0.100000)"
fill="#000000" stroke="none">
<path d="M170 350 c-28 -55 -29 -60 -12 -60 14 0 25 14 36 45 10 25 19 45 20
45 2 0 55 -25 119 -55 131 -63 125 -50 72 -155 -21 -42 -30 -50 -45 -45 -18 6
-20 2 -20 -33 0 -76 23 -57 85 69 33 65 57 121 54 123 -9 9 -260 126 -269 126
-6 0 -23 -27 -40 -60z"/>
<path d="M5 258 c-3 -13 -5 -72 -3 -133 l3 -110 158 -3 158 -3 -3 133 -3 133
-152 3 c-151 2 -153 2 -158 -20z m285 -93 c0 -89 -9 -106 -30 -55 -15 37 -35
38 -53 5 l-13 -25 -22 45 c-29 59 -48 58 -75 -5 -16 -39 -26 -50 -44 -50 -22
0 -23 3 -23 78 0 43 3 82 7 85 3 4 62 7 130 7 l123 0 0 -85z"/>
</g>
</svg>
