<?xml version="1.0" standalone="no"?>
<!DOCTYPE svg PUBLIC "-//W3C//DTD SVG 20010904//EN"
 "http://www.w3.org/TR/2001/REC-SVG-20010904/DTD/svg10.dtd">
<svg version="1.0" xmlns="http://www.w3.org/2000/svg"
 width="74.000000pt" height="60.000000pt" viewBox="0 0 74.000000 60.000000"
 preserveAspectRatio="xMidYMid meet">
<metadata>
Created by potrace 1.12, written by Peter Selinger 2001-2015
</metadata>
<g transform="translate(0.000000,60.000000) scale(0.100000,-0.100000)"
fill="#000000" stroke="none">
<path d="M527 562 c-15 -15 -27 -32 -27 -38 0 -5 34 -43 75 -84 l75 -74 35 34
c19 19 35 39 35 45 0 16 -134 145 -151 145 -8 0 -27 -13 -42 -28z"/>
<path d="M261 533 c-11 -10 -36 -54 -55 -97 -28 -65 -32 -83 -24 -102 23 -50
79 -42 108 16 11 21 25 42 31 46 6 4 54 -37 115 -97 81 -81 101 -106 92 -116
-9 -11 -17 -8 -43 17 -41 40 -60 22 -21 -19 48 -50 27 -70 -26 -25 -43 35 -63
16 -25 -24 48 -50 26 -74 -24 -26 -41 39 -59 20 -19 -21 25 -26 28 -34 17 -43
-11 -9 -21 -4 -47 23 -19 19 -31 35 -27 35 4 0 3 9 -3 20 -6 11 -17 20 -24 20
-8 0 -16 9 -19 21 -3 11 -15 23 -26 26 -12 3 -21 11 -21 19 0 14 -39 40 -41
27 -1 -4 -4 3 -8 17 -5 17 -15 26 -32 28 -15 2 -45 23 -70 48 -24 24 -47 44
-51 44 -20 0 -4 -30 37 -70 41 -40 43 -45 29 -61 -22 -24 -14 -52 16 -60 14
-4 21 -7 17 -8 -13 -2 13 -41 27 -41 8 0 16 -9 19 -21 3 -11 15 -23 26 -26 12
-3 21 -11 21 -19 0 -7 9 -18 19 -24 15 -7 25 -5 43 9 l23 20 37 -36 c34 -33
40 -35 63 -25 14 6 25 18 25 25 0 8 11 19 25 25 14 6 25 18 25 27 0 8 7 15 15
15 9 0 21 11 27 25 6 14 17 25 25 25 7 0 19 11 25 25 9 20 8 28 -5 43 -10 10
-17 23 -17 27 0 5 21 31 47 57 l47 48 -77 78 c-70 70 -83 79 -151 100 -90 27
-117 28 -145 5z"/>
</g>
</svg>
