<?xml version="1.0" standalone="no"?>
<!DOCTYPE svg PUBLIC "-//W3C//DTD SVG 20010904//EN"
 "http://www.w3.org/TR/2001/REC-SVG-20010904/DTD/svg10.dtd">
<svg version="1.0" xmlns="http://www.w3.org/2000/svg"
 width="64.000000pt" height="64.000000pt" viewBox="0 0 64.000000 64.000000"
 preserveAspectRatio="xMidYMid meet">
<metadata>
Created by potrace 1.12, written by Peter Selinger 2001-2015
</metadata>
<g transform="translate(0.000000,64.000000) scale(0.100000,-0.100000)"
fill="#000000" stroke="none">
<path d="M404 525 c-23 -10 -41 -32 -65 -79 l-34 -65 -21 20 c-12 11 -57 35
-100 54 -66 29 -80 32 -82 19 -2 -9 6 -27 19 -40 19 -20 20 -24 6 -24 -25 0
-21 -15 13 -43 24 -21 26 -26 13 -31 -14 -6 -14 -8 2 -26 10 -11 27 -20 38
-20 17 0 18 -2 6 -16 -11 -14 -9 -19 11 -34 l25 -19 -45 -20 c-54 -25 -88 -26
-138 -6 l-37 16 29 -30 c49 -51 119 -76 216 -76 77 0 92 3 152 33 71 35 120
84 140 140 9 23 18 32 34 32 12 0 27 7 34 15 11 13 8 15 -16 16 -27 0 -27 1
-8 9 37 15 39 31 3 28 -18 -1 -34 3 -36 9 -12 35 -53 80 -88 98 -28 14 -35 20
-22 23 21 4 22 18 1 26 -9 3 -16 6 -17 5 -1 0 -16 -7 -33 -14z"/>
</g>
</svg>
