<?xml version="1.0" standalone="no"?>
<!DOCTYPE svg PUBLIC "-//W3C//DTD SVG 20010904//EN"
 "http://www.w3.org/TR/2001/REC-SVG-20010904/DTD/svg10.dtd">
<svg version="1.0" xmlns="http://www.w3.org/2000/svg"
 width="66.000000pt" height="42.000000pt" viewBox="0 0 66.000000 42.000000"
 preserveAspectRatio="xMidYMid meet">
<metadata>
Created by potrace 1.12, written by Peter Selinger 2001-2015
</metadata>
<g transform="translate(0.000000,42.000000) scale(0.100000,-0.100000)"
fill="#000000" stroke="none">
<path d="M147 323 c-41 -43 -91 -87 -109 -98 -31 -19 -33 -23 -36 -88 -3 -66
-3 -67 23 -67 18 0 28 7 35 24 12 34 58 66 92 66 32 0 88 -47 88 -74 0 -13 15
-16 89 -16 l89 0 12 30 c33 80 149 75 174 -7 5 -16 15 -23 32 -23 l24 0 -2
163 -3 162 -216 3 -216 2 -76 -77z m218 -18 l0 -50 -107 -3 c-60 -1 -108 1
-108 5 0 4 21 29 48 56 47 48 47 48 107 45 l60 -3 0 -50z m255 0 l0 -56 -97 3
-98 3 -3 53 -3 52 100 0 101 0 0 -55z"/>
</g>
</svg>
